<svg width="512" height="512" xmlns="http://www.w3.org/2000/svg">

 <g>
  <title>background</title>
  <rect fill="none" id="canvas_background" height="402" width="582" y="-1" x="-1"/>
 </g>
 <g>
  <title>Layer 1</title>
  <path id="svg_1" fill="#7dd787" d="m505,50l0,412c0,22.08984 -17.91016,40 -40,40l-412,0c-22.08984,0 -40,-17.91016 -40,-40l0,-412c0,-22.08984 17.91016,-40 40,-40l412,0c22.08984,0 40,17.91016 40,40zm0,0"/>
  <path id="svg_3" fill="#7dd787" d="m256.14063,178.80078c73.57031,0.51953 102.14062,49.58985 102.14062,78.8711c0,44.19921 -46.65234,78.96875 -102.15234,78.96875c-49.12891,0 -102.19922,-30.17188 -102.19922,-78.62891c0,-68.08985 84.39844,-79.21094 102.21094,-79.21094zm0,0"/>
  <path id="svg_4" d="m386,53c0,5.52344 -4.47656,10 -10,10s-10,-4.47656 -10,-10s4.47656,-10 10,-10s10,4.47656 10,10zm0,0"/>
  <path id="svg_7" d="m462,0l-412,0c-27.57031,0 -50,22.42969 -50,50l0,412c0,27.57031 22.42969,50 50,50l412,0c27.57031,0 50,-22.42969 50,-50l0,-412c0,-27.57031 -22.42969,-50 -50,-50zm30,462c0,16.54297 -13.45703,30 -30,30l-412,0c-16.54297,0 -30,-13.45703 -30,-30l0,-412c0,-16.54297 13.45703,-30 30,-30l412,0c16.54297,0 30,13.45703 30,30l0,412zm0,0"/>
  <path id="svg_8" d="m136,63l200,0c5.52344,0 10,-4.47656 10,-10s-4.47656,-10 -10,-10l-200,0c-5.52344,0 -10,4.47656 -10,10s4.47656,10 10,10zm0,0"/>
  <g stroke="null" id="svg_62">
   <g stroke="null" transform="matrix(0.9336518492133351,0,0,0.7354777271002365,-1353.3021541239343,-928.1884780186335) " id="svg_29">
    <path stroke="null" fill="#85838C" d="m1845.986595,1573.406053l-14.013,210.199c-3.369,50.534 -45.341,89.801 -95.987,89.801l0,0c-50.646,0 -92.618,-39.267 -95.987,-89.801l-14.013,-210.199c0,-33.137 26.863,-60 60,-60l100,0c33.137,0 60,26.863 60,60z" id="svg_45"/>
    <path stroke="null" fill="#EA8D39" d="m1835.986595,1855.506053l0,7.9c0,5.523 -4.477,10 -10,10l-90,0l-90,0c-5.523,0 -10,-4.477 -10,-10l0,-7.9c0,-11.832 10.216,-21.078 21.99,-19.901l78.01,7.801l78.01,-7.801c11.774,-1.178 21.99,8.068 21.99,19.901z" id="svg_44"/>
    <path stroke="null" fill="#D3792F" d="m1835.986595,1855.506053l0,7.9c0,5.523 -4.477,10 -10,10l-90,0l-90,0c-5.523,0 -10,-4.477 -10,-10l0,-7.9c0,-2.189 0.352,-4.289 0.996,-6.251c2.425,7.011 9.068,12.054 16.904,12.054l82.1,0l82.1,0c7.836,0 14.479,-5.043 16.904,-12.054c0.644,1.962 0.996,4.061 0.996,6.251z" id="svg_43"/>
    <path stroke="null" fill="#A19DA8" d="m1845.986595,1573.406053l-6.375,95.618c-2.245,33.675 -15.349,65.885 -37.999,90.906c-19.261,21.277 -41.686,33.476 -65.626,33.476s-46.365,-12.199 -65.627,-33.476c-22.65,-25.021 -35.754,-57.231 -37.999,-90.906l-6.374,-95.618c0,-33.137 26.863,-60 60,-60l100,0c33.137,0 60,26.863 60,60z" id="svg_42"/>
    <path stroke="null" fill="#B2ADBC" d="m1843.579595,1556.586053c-19.608,39.593 -60.417,66.82 -107.593,66.82l0,0c-47.175,0 -87.985,-27.227 -107.593,-66.82c7.275,-24.947 30.297,-43.18 57.593,-43.18l100,0c27.296,0 50.318,18.233 57.593,43.18z" id="svg_41"/>
    <path stroke="null" fill="#312F34" d="m1785.986595,1463.406053l0,60l-100,0l0,-60c0,-27.614 22.386,-50 50,-50l0,0c27.614,0 50,22.386 50,50z" id="svg_40"/>
    <path stroke="null" fill="#EA8D39" d="m1816.909595,1521.995053c-21.336,19.505 -49.735,31.411 -80.923,31.411l0,0c-31.187,0 -59.587,-11.906 -80.923,-31.411c9.03,-5.447 19.607,-8.589 30.923,-8.589l50,0c11.046,0 20,-8.954 20,-20c0,-16.569 13.431,-30 30,-30l0,50c11.316,0 21.893,3.142 30.923,8.589z" id="svg_39"/>
    <path stroke="null" fill="#D3792F" d="m1785.986595,1463.406053l0,11.401c-12.131,3.848 -20.923,15.195 -20.923,28.599c0,11.046 -8.954,20 -20,20l-50,0c-10.533,0 -20.424,2.725 -29.025,7.494c-3.833,-2.756 -7.499,-5.728 -10.975,-8.905c9.03,-5.447 19.607,-8.589 30.923,-8.589l50,0c11.046,0 20,-8.954 20,-20c0,-16.569 13.431,-30 30,-30z" id="svg_38"/>
    <path stroke="null" fill="#F6B257" d="m1597.829595,1479.406053c-1.161,-1.719 -1.843,-3.782 -1.843,-6c0,-5.635 4.354,-10.311 9.975,-10.712l110.076,-7.863c10.78,-0.77 19.949,7.768 19.949,18.575c0,2.105 -0.357,4.119 -0.997,6l-137.16,0z" id="svg_37"/>
    <path stroke="null" fill="#D3792F" d="m1716.037595,1491.981053l-110.076,-7.863c-5.621,-0.401 -9.975,-5.078 -9.975,-10.712l140,0l0,0c0,10.807 -9.169,19.345 -19.949,18.575z" id="svg_36"/>
    <path stroke="null" fill="#312F34" d="m1685.986595,1513.406053l0,180c0,33.137 -26.863,60 -60,60l0,0l0,-180c0,-33.137 26.863,-60 60,-60z" id="svg_35"/>
    <path stroke="null" fill="#4D4A51" d="m1665.986595,1516.834053l0,136.572c0,19.679 -9.477,37.139 -24.114,48.077c-6.548,4.893 -15.886,0.085 -15.886,-8.089l0,-120.845c0,-26.122 16.699,-47.477 40,-55.715z" id="svg_34"/>
    <path stroke="null" fill="#312F34" d="m1785.986595,1513.406053l0,0l0,180c0,33.137 26.863,60 60,60l0,-180c0,-33.137 -26.863,-60 -60,-60z" id="svg_33"/>
    <path stroke="null" fill="#4D4A51" d="m1805.986595,1516.834053l0,136.572c0,19.679 9.477,37.139 24.114,48.077c6.548,4.893 15.886,0.085 15.886,-8.089l0,-121.071c0,-26.123 -16.699,-47.251 -40,-55.489z" id="svg_32"/>
    <path stroke="null" fill="#4D4A51" d="m1765.986595,1438.406053c0,8.284 -6.716,15 -15,15s-15,-6.716 -15,-15s6.716,-15 15,-15s15,6.716 15,15z" id="svg_31"/>
    <path stroke="null" fill="#B2ADBC" d="m1750.986595,1438.406053c0,2.761 -2.239,5 -5,5s-5,-2.239 -5,-5s2.239,-5 5,-5c2.761,0 5,2.239 5,5z" id="svg_30"/>
   </g>
   <g stroke="null" transform="matrix(0.9336518492133351,0,0,0.7354777271002365,-1353.3021541239343,-928.1884780186335) " id="svg_47"/>
   <g stroke="null" transform="matrix(0.9336518492133351,0,0,0.7354777271002365,-1353.3021541239343,-928.1884780186335) " id="svg_48"/>
   <g stroke="null" transform="matrix(0.9336518492133351,0,0,0.7354777271002365,-1353.3021541239343,-928.1884780186335) " id="svg_49"/>
   <g stroke="null" transform="matrix(0.9336518492133351,0,0,0.7354777271002365,-1353.3021541239343,-928.1884780186335) " id="svg_50"/>
   <g stroke="null" transform="matrix(0.9336518492133351,0,0,0.7354777271002365,-1353.3021541239343,-928.1884780186335) " id="svg_51"/>
   <g stroke="null" transform="matrix(0.9336518492133351,0,0,0.7354777271002365,-1353.3021541239343,-928.1884780186335) " id="svg_52"/>
   <g stroke="null" transform="matrix(0.9336518492133351,0,0,0.7354777271002365,-1353.3021541239343,-928.1884780186335) " id="svg_53"/>
   <g stroke="null" transform="matrix(0.9336518492133351,0,0,0.7354777271002365,-1353.3021541239343,-928.1884780186335) " id="svg_54"/>
   <g stroke="null" transform="matrix(0.9336518492133351,0,0,0.7354777271002365,-1353.3021541239343,-928.1884780186335) " id="svg_55"/>
   <g stroke="null" transform="matrix(0.9336518492133351,0,0,0.7354777271002365,-1353.3021541239343,-928.1884780186335) " id="svg_56"/>
   <g stroke="null" transform="matrix(0.9336518492133351,0,0,0.7354777271002365,-1353.3021541239343,-928.1884780186335) " id="svg_57"/>
   <g stroke="null" transform="matrix(0.9336518492133351,0,0,0.7354777271002365,-1353.3021541239343,-928.1884780186335) " id="svg_58"/>
   <g stroke="null" transform="matrix(0.9336518492133351,0,0,0.7354777271002365,-1353.3021541239343,-928.1884780186335) " id="svg_59"/>
   <g stroke="null" transform="matrix(0.9336518492133351,0,0,0.7354777271002365,-1353.3021541239343,-928.1884780186335) " id="svg_60"/>
   <g stroke="null" transform="matrix(0.9336518492133351,0,0,0.7354777271002365,-1353.3021541239343,-928.1884780186335) " id="svg_61"/>
  </g>
 </g>
</svg>